<svg xmlns="http://www.w3.org/2000/svg" width="512" height="512" viewBox="0 0 512 512">
  <defs>
    <linearGradient id="bg" x1="0" y1="0" x2="1" y2="1">
      <stop offset="0%" stop-color="#FFF8ED"/>
      <stop offset="100%" stop-color="#FFE0CC"/>
    </linearGradient>
    <linearGradient id="hat" x1="0" y1="0" x2="0" y2="1">
      <stop offset="0%" stop-color="#F47A52"/>
      <stop offset="100%" stop-color="#E65A2E"/>
    </linearGradient>
    <linearGradient id="spoon" x1="0" y1="0" x2="1" y2="1">
      <stop offset="0%" stop-color="#F4A62A"/>
      <stop offset="100%" stop-color="#B87333"/>
    </linearGradient>
  </defs>
  <rect width="512" height="512" rx="100" fill="url(#bg)"/>
  <g transform="translate(96 96) scale(5)">
    <path d="M14 22c0-7 6-12 13-12 4 0 7 2 9 5 2-3 5-5 9-5 7 0 13 5 13 12 0 5-4 9-9 9H23c-5 0-9-4-9-9z" fill="url(#hat)"/>
    <rect x="18" y="29" width="28" height="6" rx="2" fill="#3A2417" opacity="0.85"/>
    <ellipse cx="32" cy="44" rx="9" ry="7" fill="url(#spoon)"/>
    <path d="M26 44c0-3 3-5 6-5s6 2 6 5" stroke="#3A2417" stroke-width="1.6" stroke-linecap="round" opacity="0.8" fill="none"/>
    <path d="M28 46c0 1.5 2 2.5 4 2.5s4-1 4-2.5" stroke="#3A2417" stroke-width="1.4" stroke-linecap="round" opacity="0.55" fill="none"/>
    <rect x="30" y="50" width="4" height="8" rx="2" fill="#B87333"/>
    <path d="M48 14c2-1 4 0 5 2-2 1-4 1-5-2z" fill="#6F8F3D"/>
  </g>
</svg>
